<svg xmlns="http://www.w3.org/2000/svg" xmlns:xlink="http://www.w3.org/1999/xlink" width="500" zoomAndPan="magnify" viewBox="0 0 375 374.999991" height="500" preserveAspectRatio="xMidYMid meet" version="1.0"><defs><g/><clipPath id="3f7c80e1d8"><path d="M 159.445312 161 L 215.695312 161 L 215.695312 214.605469 L 159.445312 214.605469 Z M 159.445312 161 " clip-rule="nonzero"/></clipPath><clipPath id="941537f486"><path d="M 159.445312 160.605469 L 215.695312 160.605469 L 215.695312 214.605469 L 159.445312 214.605469 Z M 159.445312 160.605469 " clip-rule="nonzero"/></clipPath></defs><path stroke-linecap="round" transform="matrix(0.07825, 0, 0, 0.07825, 158.429644, 148.318716)" fill-opacity="1" fill="#dde1ee" fill-rule="nonzero" stroke-linejoin="round" d="M 209.265709 228.5048 C 126.448227 284.265575 71.486174 381.460052 71.486174 492.033121 C 71.486174 664.956421 205.67146 805.281882 371.006902 805.281882 C 536.342344 805.281882 670.52763 664.956421 670.52763 492.033121 C 670.52763 377.915723 612.021248 277.97564 524.710956 223.213267 C 504.742907 213.578684 414.886689 158.46687 524.710956 233.147371 C 552.566383 251.268375 577.626284 274.081871 598.093534 300.839056 C 648.812377 365.535533 671.126672 453.045506 659.545203 535.912907 C 648.363096 621.575836 599.491297 700.150107 530.60153 747.224781 C 462.909845 794.499136 375.749313 808.676451 297.075202 787.011118 C 213.159478 764.946424 141.174663 700.399707 105.481776 618.131347 C 67.193043 532.069058 71.785694 426.937282 115.865162 344.319481 C 138.029695 301.687698 170.677455 265.54553 209.265709 238.688505 C 318.341174 157.019186 237.220977 209.435314 209.265709 228.5048 Z M 209.265709 228.5048 " stroke="#000000" stroke-width="2.748" stroke-opacity="1" stroke-miterlimit="4"/><g clip-path="url(#3f7c80e1d8)"><path fill="#dde1ee" d="M 177.417969 214.265625 C 177.417969 214.175781 181.96875 211.90625 182.785156 211.589844 C 183.90625 211.152344 185.761719 210.839844 186.417969 210.972656 L 186.898438 211.074219 L 186.363281 211.710938 C 186.070312 212.0625 185.582031 212.519531 185.28125 212.730469 C 184.550781 213.238281 182.765625 213.847656 181.398438 214.050781 C 180.4375 214.195312 177.417969 214.359375 177.417969 214.265625 Z M 195.535156 214.214844 C 193.492188 214.09375 193.335938 214.066406 191.429688 213.464844 C 190.292969 213.105469 190 212.933594 189.121094 212.089844 L 188.113281 211.125 L 188.558594 211 C 189.703125 210.679688 193.371094 211.734375 194.980469 212.847656 C 195.285156 213.058594 195.710938 213.285156 195.921875 213.347656 C 196.410156 213.496094 197.789062 214.199219 197.789062 214.300781 C 197.789062 214.34375 197.703125 214.367188 197.59375 214.355469 C 197.488281 214.339844 196.558594 214.277344 195.535156 214.214844 Z M 173.296875 211.484375 C 172.441406 211.21875 171.4375 210.914062 171.066406 210.804688 L 170.390625 210.613281 L 171.53125 210.414062 C 172.160156 210.304688 173.351562 210.078125 174.183594 209.910156 C 176.492188 209.4375 178.808594 209.574219 180.308594 210.273438 L 180.707031 210.460938 L 180.207031 210.90625 C 178.898438 212.078125 175.992188 212.320312 173.296875 211.484375 Z M 196.398438 211.667969 C 195.289062 211.257812 194.269531 210.542969 194.5625 210.378906 C 195.167969 210.027344 197.199219 209.601562 198.238281 209.601562 C 199.195312 209.601562 201.722656 209.996094 204.128906 210.523438 C 204.585938 210.625 204.394531 210.710938 202.40625 211.3125 C 200.453125 211.902344 199.980469 211.988281 198.707031 211.984375 C 197.660156 211.980469 197.003906 211.890625 196.398438 211.667969 Z M 183.539062 210.382812 C 182.554688 210.089844 180.511719 207.722656 180.140625 206.441406 L 180.035156 206.074219 L 180.707031 206.425781 C 181.074219 206.617188 181.859375 206.945312 182.453125 207.152344 C 184.417969 207.835938 185.324219 208.578125 185.890625 209.96875 L 186.128906 210.554688 L 185.078125 210.542969 C 184.5 210.535156 183.804688 210.460938 183.539062 210.382812 Z M 189.082031 210.273438 C 189.082031 209.839844 190.1875 208.421875 190.914062 207.929688 C 191.234375 207.714844 191.941406 207.386719 192.492188 207.203125 C 193.039062 207.015625 193.832031 206.695312 194.253906 206.488281 L 195.019531 206.109375 L 194.921875 206.511719 C 194.679688 207.488281 193.164062 209.46875 192.222656 210.035156 C 191.679688 210.359375 191.257812 210.46875 190.304688 210.523438 C 189.152344 210.59375 189.082031 210.578125 189.082031 210.273438 Z M 179.285156 209.488281 C 177.601562 208.875 176.414062 207.484375 175.777344 205.390625 C 175.5625 204.683594 175.34375 203.792969 175.292969 203.417969 L 175.195312 202.730469 L 177.289062 204.851562 C 179.449219 207.039062 179.890625 207.695312 180.027344 208.917969 C 180.105469 209.628906 179.960938 209.738281 179.285156 209.488281 Z M 195.03125 208.964844 C 195.214844 207.5625 196.011719 206.488281 198.96875 203.65625 L 199.917969 202.746094 L 199.792969 203.5625 C 199.386719 206.1875 198.050781 208.46875 196.484375 209.21875 C 196.046875 209.425781 195.523438 209.597656 195.320312 209.597656 C 194.976562 209.601562 194.953125 209.550781 195.03125 208.964844 Z M 170.652344 208.027344 C 168.863281 207.457031 168.398438 207.222656 166.6875 206.007812 C 165.738281 205.335938 164.980469 204.769531 165.007812 204.75 C 165.242188 204.578125 170.851562 205.203125 171.339844 205.457031 C 171.476562 205.527344 172.039062 205.8125 172.597656 206.089844 C 173.152344 206.367188 173.878906 206.839844 174.214844 207.136719 L 174.820312 207.683594 L 174.261719 207.921875 C 173.335938 208.320312 171.722656 208.367188 170.652344 208.027344 Z M 201.542969 208.152344 C 201.167969 208.078125 200.765625 207.933594 200.644531 207.832031 C 200.359375 207.585938 200.628906 207.265625 201.78125 206.480469 C 203.058594 205.613281 204.5 205.167969 206.605469 204.984375 C 209.316406 204.753906 210.050781 204.726562 209.96875 204.867188 C 209.789062 205.160156 206.585938 207.242188 205.839844 207.546875 C 204.097656 208.265625 202.914062 208.429688 201.542969 208.15625 Z M 173.570312 206.046875 C 172.59375 205.292969 171.714844 204.007812 171.507812 203.027344 C 171.410156 202.558594 171.351562 201.28125 171.382812 200.121094 L 171.429688 198.050781 L 172 199.164062 C 172.3125 199.777344 172.75 200.554688 172.972656 200.890625 C 174.0625 202.519531 174.667969 204.726562 174.371094 205.96875 L 174.230469 206.554688 Z M 200.78125 204.957031 C 200.863281 203.238281 201.125 202.390625 201.949219 201.210938 C 202.144531 200.929688 202.609375 200.117188 202.984375 199.394531 L 203.664062 198.085938 L 203.773438 199.425781 C 203.90625 201.035156 203.6875 203.101562 203.292969 203.957031 C 202.988281 204.625 201.667969 206.078125 201.066406 206.40625 L 200.699219 206.609375 Z M 167.679688 202.992188 C 167.152344 202.875 166.488281 202.652344 166.203125 202.5 C 165.261719 202.003906 163.664062 200.585938 162.960938 199.625 C 162.582031 199.109375 162.0625 198.453125 161.808594 198.167969 C 161.28125 197.585938 161.3125 197.558594 162.136719 197.878906 C 162.457031 198.007812 163.117188 198.1875 163.597656 198.285156 C 164.601562 198.488281 166.339844 199.300781 167.316406 200.027344 C 168.0625 200.582031 169.21875 201.90625 169.574219 202.609375 C 169.789062 203.03125 169.785156 203.070312 169.53125 203.070312 C 169.378906 203.070312 169.113281 203.101562 168.941406 203.140625 C 168.773438 203.179688 168.203125 203.113281 167.679688 202.992188 Z M 205.835938 203.113281 C 205.601562 203.078125 205.40625 203.011719 205.40625 202.964844 C 205.40625 202.648438 206.359375 201.34375 207.097656 200.644531 C 208.121094 199.679688 210.222656 198.546875 211.480469 198.277344 C 211.945312 198.179688 212.632812 197.996094 213.007812 197.871094 C 213.816406 197.597656 213.992188 197.679688 213.421875 198.058594 C 213.199219 198.210938 212.773438 198.699219 212.480469 199.148438 C 211.570312 200.53125 211.074219 201.003906 209.164062 202.316406 C 208.441406 202.808594 206.636719 203.242188 205.835938 203.113281 Z M 168.980469 201 C 168.574219 200.515625 168.382812 200.066406 168.1875 199.160156 C 168.046875 198.5 167.929688 197.683594 167.929688 197.347656 C 167.929688 196.460938 168.5 193.761719 168.851562 192.980469 C 169.144531 192.324219 169.148438 192.320312 169.164062 192.792969 C 169.171875 193.054688 169.421875 194.273438 169.71875 195.5 C 170.058594 196.898438 170.261719 198.121094 170.261719 198.777344 C 170.265625 199.8125 169.917969 201.378906 169.652344 201.550781 C 169.574219 201.597656 169.273438 201.347656 168.980469 201 Z M 205.273438 201.1875 C 204.644531 199.558594 204.667969 198.492188 205.402344 195.5 C 205.660156 194.449219 205.871094 193.394531 205.871094 193.160156 C 205.878906 191.765625 206.558594 193.339844 206.964844 195.679688 C 207.351562 197.929688 206.851562 200.550781 205.890625 201.277344 L 205.4375 201.621094 Z M 164.84375 196.6875 C 163.726562 196.28125 162.613281 195.382812 161.945312 194.355469 C 161.644531 193.894531 160.984375 192.652344 160.472656 191.597656 L 159.546875 189.679688 L 160.277344 190.109375 C 160.683594 190.347656 161.421875 190.832031 161.921875 191.191406 C 162.421875 191.546875 163.074219 191.988281 163.375 192.175781 C 164.5 192.875 165.777344 194.917969 166.007812 196.382812 C 166.121094 197.121094 166.070312 197.136719 164.84375 196.6875 Z M 208.984375 196.769531 C 208.984375 196.636719 209.203125 195.941406 209.472656 195.230469 C 210.023438 193.769531 210.75 192.847656 212.074219 191.9375 C 213.289062 191.101562 215.265625 189.847656 215.371094 189.84375 C 215.535156 189.84375 213.496094 193.902344 212.957031 194.652344 C 212.324219 195.527344 211.28125 196.300781 210.171875 196.714844 C 209.207031 197.078125 208.984375 197.089844 208.984375 196.769531 Z M 165.925781 194.707031 C 165.507812 193.5625 165.5 192.113281 165.910156 190.753906 C 166.246094 189.648438 168.242188 186.332031 168.234375 186.898438 C 168.210938 188.753906 167.898438 192.46875 167.71875 193.050781 C 167.414062 194.039062 166.945312 194.960938 166.5625 195.3125 C 166.257812 195.597656 166.246094 195.585938 165.925781 194.707031 Z M 208.476562 195.300781 C 208.101562 194.875 207.492188 193.515625 207.289062 192.660156 C 207.128906 191.984375 206.773438 186.808594 206.878906 186.695312 C 206.992188 186.570312 208.867188 189.746094 209.15625 190.5625 C 209.636719 191.910156 209.632812 193.785156 209.148438 194.824219 C 208.953125 195.238281 208.777344 195.582031 208.757812 195.582031 C 208.738281 195.582031 208.609375 195.453125 208.476562 195.300781 Z M 163.082031 189.589844 C 161.660156 188.628906 160.855469 187.007812 160.398438 184.171875 C 160.269531 183.375 160.113281 182.585938 160.054688 182.421875 C 159.96875 182.1875 160.074219 182.230469 160.503906 182.597656 C 160.8125 182.859375 161.234375 183.195312 161.445312 183.34375 C 162.097656 183.808594 163.765625 186.351562 164.070312 187.351562 C 164.414062 188.480469 164.460938 190.164062 164.144531 190.164062 C 164.027344 190.164062 163.550781 189.90625 163.082031 189.589844 Z M 210.746094 188.976562 C 210.863281 187.582031 211.222656 186.53125 211.953125 185.453125 C 212.5 184.644531 214.84375 182.199219 215.070312 182.199219 C 215.140625 182.199219 215.128906 182.382812 215.042969 182.609375 C 214.957031 182.839844 214.792969 183.644531 214.671875 184.402344 C 214.25 187.070312 213.359375 188.78125 211.945312 189.644531 C 210.6875 190.414062 210.632812 190.382812 210.746094 188.976562 Z M 164.738281 188.195312 C 164.667969 187.617188 164.714844 187.015625 164.886719 186.324219 C 165.316406 184.585938 165.792969 183.796875 167.308594 182.3125 C 168.078125 181.558594 168.707031 180.976562 168.707031 181.019531 C 168.707031 181.066406 168.597656 181.472656 168.460938 181.929688 C 167.703125 184.445312 167.230469 185.824219 166.949219 186.332031 C 166.519531 187.105469 165.097656 189.046875 164.957031 189.046875 C 164.894531 189.046875 164.796875 188.664062 164.738281 188.195312 Z M 209.488281 188.277344 C 208.226562 186.746094 207.546875 185.1875 206.425781 181.242188 L 206.3125 180.84375 L 206.695312 181.242188 C 206.910156 181.460938 207.609375 182.164062 208.253906 182.804688 C 209.25 183.796875 209.484375 184.140625 209.84375 185.117188 C 210.289062 186.332031 210.5 188.089844 210.273438 188.699219 C 210.140625 189.054688 210.117188 189.042969 209.488281 188.277344 Z M 163.640625 183.011719 C 162.402344 182.238281 161.90625 180.519531 162.101562 177.667969 C 162.167969 176.699219 162.222656 175.675781 162.226562 175.398438 C 162.230469 174.910156 162.242188 174.917969 162.757812 175.796875 C 163.050781 176.296875 163.386719 176.8125 163.503906 176.945312 C 163.824219 177.308594 164.4375 178.8125 164.664062 179.785156 C 164.859375 180.636719 164.8125 181.53125 164.503906 182.699219 C 164.320312 183.40625 164.289062 183.414062 163.640625 183.011719 Z M 210.664062 182.953125 C 210.535156 182.726562 210.464844 181.984375 210.460938 180.921875 C 210.460938 179.355469 210.492188 179.183594 210.964844 178.214844 C 211.242188 177.644531 211.773438 176.695312 212.148438 176.105469 L 212.824219 175.03125 L 212.960938 176.582031 C 213.195312 179.3125 213.027344 180.832031 212.351562 182.085938 C 212.078125 182.601562 211.265625 183.3125 210.953125 183.3125 C 210.902344 183.3125 210.773438 183.152344 210.664062 182.953125 Z M 165.132812 181.949219 C 165.132812 180.601562 165.90625 179.125 167.238281 177.921875 C 167.800781 177.417969 170.527344 175.824219 170.832031 175.824219 C 170.878906 175.824219 170.695312 176.09375 170.425781 176.421875 C 170.15625 176.75 169.515625 177.664062 169 178.453125 C 167.972656 180.035156 166.953125 181.183594 165.960938 181.894531 C 165.167969 182.457031 165.132812 182.460938 165.132812 181.949219 Z M 209.214844 181.9375 C 208.292969 181.3125 206.976562 179.96875 206.644531 179.304688 C 206.183594 178.394531 205.398438 177.234375 204.832031 176.625 C 204.550781 176.324219 204.320312 176.011719 204.320312 175.9375 C 204.320312 175.863281 205.023438 176.183594 205.882812 176.644531 C 207.113281 177.300781 207.664062 177.714844 208.445312 178.5625 C 209.4375 179.640625 209.660156 180.109375 209.996094 181.839844 C 210.117188 182.464844 210.015625 182.480469 209.214844 181.9375 Z M 165.335938 176.589844 C 164.328125 174.84375 164.367188 173.707031 165.558594 170.101562 L 166.003906 168.761719 L 166.527344 170.394531 C 166.941406 171.683594 167.054688 172.289062 167.050781 173.25 C 167.050781 174.589844 166.628906 175.984375 166 176.730469 L 165.65625 177.144531 Z M 209.191406 176.917969 C 209.097656 176.796875 208.820312 176.308594 208.574219 175.824219 C 208.160156 175.011719 208.128906 174.828125 208.140625 173.195312 C 208.148438 171.632812 208.199219 171.308594 208.628906 170.167969 C 208.921875 169.398438 209.148438 168.988281 209.203125 169.132812 C 209.882812 170.929688 210.535156 173.351562 210.535156 174.105469 C 210.539062 174.78125 210.03125 176.28125 209.628906 176.789062 C 209.410156 177.070312 209.328125 177.09375 209.191406 176.917969 Z M 166.933594 175.945312 C 167.46875 174.214844 169.683594 172.5625 172.3125 171.925781 C 173.859375 171.550781 173.96875 171.609375 173.046875 172.316406 C 172.59375 172.664062 171.976562 173.191406 171.671875 173.480469 C 170.371094 174.730469 167.828125 176.296875 167.105469 176.300781 C 166.882812 176.304688 166.847656 176.226562 166.933594 175.945312 Z M 207.523438 176.1875 C 206.96875 176.042969 205.332031 175.039062 204.476562 174.316406 C 204.003906 173.921875 203.117188 173.1875 202.5 172.683594 C 201.886719 172.183594 201.40625 171.746094 201.433594 171.71875 C 201.582031 171.566406 203.542969 172.082031 204.679688 172.570312 C 206.136719 173.195312 207.332031 174.21875 207.875 175.300781 C 208.367188 176.292969 208.324219 176.398438 207.523438 176.1875 Z M 168.273438 171.007812 C 168.039062 169.894531 168.175781 168.558594 168.621094 167.644531 C 168.839844 167.195312 169.46875 166.265625 170.019531 165.585938 L 171.015625 164.34375 L 171.125 165.382812 C 171.363281 167.664062 170.816406 169.5625 169.554688 170.847656 C 169.101562 171.308594 168.660156 171.683594 168.574219 171.683594 C 168.488281 171.683594 168.351562 171.378906 168.273438 171.007812 Z M 205.679688 170.980469 C 205.242188 170.566406 204.765625 169.898438 204.515625 169.347656 C 204.136719 168.515625 204.085938 168.199219 204.035156 166.347656 L 203.980469 164.273438 L 204.578125 164.976562 C 206.308594 167.011719 206.777344 167.890625 206.910156 169.328125 C 206.996094 170.285156 206.769531 171.683594 206.53125 171.679688 C 206.46875 171.679688 206.085938 171.363281 205.679688 170.980469 Z M 170.597656 170.398438 C 171.925781 169.109375 173.257812 168.652344 175.675781 168.660156 C 177.386719 168.660156 177.6875 168.828125 176.6875 169.210938 C 176.277344 169.367188 175.382812 169.78125 174.695312 170.128906 C 173.332031 170.820312 171.886719 171.199219 170.597656 171.203125 L 169.765625 171.207031 Z M 202.6875 170.980469 C 202.175781 170.871094 201.089844 170.457031 200.277344 170.0625 C 199.464844 169.664062 198.539062 169.242188 198.21875 169.125 C 197.378906 168.816406 197.773438 168.660156 199.390625 168.660156 C 201.875 168.652344 203.453125 169.234375 204.777344 170.636719 L 205.3125 171.207031 L 204.46875 171.191406 C 204 171.179688 203.199219 171.085938 202.6875 170.980469 Z M 174.890625 167.707031 C 174.566406 167.644531 174.261719 167.546875 174.207031 167.488281 C 174.03125 167.308594 174.457031 166.945312 175.285156 166.574219 C 176.527344 166.011719 178.460938 166.046875 180.257812 166.664062 C 181.003906 166.917969 181.617188 167.1875 181.617188 167.253906 C 181.617188 167.324219 181.355469 167.382812 181.035156 167.382812 C 180.714844 167.382812 179.679688 167.488281 178.738281 167.617188 C 176.914062 167.867188 175.832031 167.894531 174.890625 167.707031 Z M 196.933594 167.703125 C 196.421875 167.632812 195.417969 167.519531 194.710938 167.453125 C 194 167.386719 193.476562 167.277344 193.542969 167.207031 C 193.804688 166.945312 196.054688 166.277344 197.019531 166.175781 C 198.1875 166.054688 199.722656 166.382812 200.449219 166.914062 C 200.964844 167.292969 201.011719 167.464844 200.625 167.613281 C 200.183594 167.789062 197.9375 167.84375 196.933594 167.703125 Z M 172.683594 167.125 C 172.34375 165.734375 173.363281 164.011719 175.332031 162.648438 C 175.839844 162.300781 176.402344 161.933594 176.585938 161.832031 L 176.917969 161.652344 L 176.640625 162.757812 C 176.25 164.3125 175.8125 165.15625 174.910156 166.09375 C 174.273438 166.757812 173.160156 167.539062 172.855469 167.539062 C 172.816406 167.539062 172.742188 167.355469 172.683594 167.125 Z M 201.503906 167.222656 C 200.773438 166.828125 199.371094 165.25 199.011719 164.417969 C 198.714844 163.730469 198.195312 161.8125 198.28125 161.726562 C 198.3125 161.699219 198.839844 162.015625 199.460938 162.425781 C 200.714844 163.257812 202.066406 164.773438 202.316406 165.628906 C 202.503906 166.277344 202.445312 167.417969 202.222656 167.480469 C 202.136719 167.503906 201.8125 167.390625 201.503906 167.222656 Z M 177.65625 164.316406 C 177.980469 162.773438 178.785156 162.136719 181.226562 161.492188 C 181.828125 161.332031 182.445312 161.148438 182.605469 161.082031 C 183.152344 160.855469 182.441406 161.929688 181.230469 163.171875 C 180.066406 164.363281 179.15625 164.832031 178 164.832031 C 177.574219 164.832031 177.554688 164.804688 177.65625 164.316406 Z M 195.777344 164.570312 C 195.398438 164.433594 194.8125 164.097656 194.472656 163.820312 C 193.898438 163.351562 192.152344 161.15625 192.261719 161.042969 C 192.289062 161.015625 192.652344 161.097656 193.066406 161.230469 C 193.484375 161.363281 194.269531 161.601562 194.8125 161.757812 C 196.328125 162.195312 197.476562 163.386719 197.476562 164.507812 C 197.476562 164.769531 197.378906 164.832031 196.972656 164.824219 C 196.695312 164.820312 196.15625 164.707031 195.777344 164.570312 Z M 195.777344 164.570312 " fill-opacity="1" fill-rule="nonzero"/></g><g clip-path="url(#941537f486)"><path stroke-linecap="butt" transform="matrix(0.07825, 0, 0, 0.07825, 158.429644, 148.318716)" fill="none" stroke-linejoin="miter" d="M 242.66227 842.771893 C 242.66227 841.623731 300.819211 812.62014 311.252517 808.57661 C 325.579591 802.985557 349.291649 798.991947 357.678229 800.689231 L 363.818404 801.987154 L 356.979348 810.124134 C 353.235339 814.616945 346.995323 820.457599 343.151474 823.153286 C 333.816411 829.642901 311.002916 837.43044 293.530873 840.026287 C 281.250524 841.873331 242.66227 843.969976 242.66227 842.771893 Z M 474.191793 842.122932 C 448.083569 840.575408 446.086764 840.225967 421.725745 832.538269 C 407.19899 827.945617 403.454981 825.749132 392.222953 814.966386 L 379.343562 802.636116 L 385.034456 801.038672 C 399.661052 796.945222 446.536046 810.423655 467.103136 824.650889 C 470.996905 827.346576 476.438198 830.241943 479.133885 831.040665 C 485.3739 832.93763 502.995703 841.923251 502.995703 843.221175 C 502.995703 843.770296 501.89746 844.069817 500.499697 843.920056 C 499.151853 843.720376 487.270865 842.921654 474.191793 842.122932 Z M 189.996542 807.228767 C 179.064035 803.834199 166.234564 799.940429 161.492152 798.542666 L 152.855971 796.09658 L 167.432647 793.550654 C 175.469786 792.15289 190.695423 789.257523 201.328409 787.110958 C 230.831201 781.070623 260.433833 782.817828 279.60316 791.753529 L 284.695012 794.149695 L 278.305236 799.840589 C 261.581996 814.816625 224.441425 817.911673 189.996542 807.228767 Z M 485.22414 809.575013 C 471.046825 804.3334 458.017673 795.198018 461.761683 793.101373 C 469.499301 788.608562 495.457764 783.167268 508.736517 783.167268 C 520.966946 783.167268 553.265265 788.209201 584.01606 794.948417 C 589.856714 796.24634 587.410628 797.344583 562.001286 805.032282 C 537.041226 812.57022 531.000891 813.668463 514.726931 813.618543 C 501.348339 813.568622 492.961758 812.42046 485.22414 809.575013 Z M 320.8871 793.151293 C 308.307229 789.407284 282.199006 759.15569 277.456594 742.78189 L 276.108751 738.089399 L 284.695012 742.58221 C 289.387503 745.028296 299.421448 749.221586 307.009306 751.867352 C 332.119127 760.603374 343.700595 770.088197 350.939013 787.85976 L 353.98414 795.347778 L 340.555628 795.198018 C 333.16745 795.098178 324.281668 794.149695 320.8871 793.151293 Z M 391.723752 791.753529 C 391.723752 786.212396 405.851147 768.091392 415.136289 761.801457 C 419.229739 759.05585 428.265281 754.86256 435.304018 752.516314 C 442.292835 750.120148 452.42662 746.026698 457.817993 743.380932 L 467.602337 738.53868 L 466.354334 743.680452 C 463.259286 756.160483 443.890279 781.469984 431.85953 788.708402 C 424.920633 792.851772 419.52926 794.249535 407.34875 794.948417 C 392.622314 795.846979 391.723752 795.647299 391.723752 791.753529 Z M 266.524088 781.719585 C 245.008516 773.882126 229.832799 756.110563 221.695819 729.353378 C 218.950212 720.317836 216.154685 708.936048 215.505724 704.143716 L 214.257721 695.357775 L 241.014906 722.464401 C 268.620733 750.419669 274.261707 758.806249 276.008911 774.431247 C 277.007313 783.516709 275.160269 784.914473 266.524088 781.719585 Z M 467.752097 775.030289 C 470.098343 757.108965 480.282048 743.380932 518.071579 707.188844 L 530.202169 695.557455 L 528.604725 705.990761 C 523.413032 739.537082 506.340351 768.690433 486.322382 778.275097 C 480.731329 780.920863 474.042032 783.117348 471.446186 783.117348 C 467.053215 783.167268 466.753695 782.518307 467.752097 775.030289 Z M 156.20062 763.04946 C 133.337204 755.761122 127.39671 752.765915 105.531696 737.240757 C 93.401107 728.654496 83.716603 721.416078 84.066044 721.166478 C 87.061251 718.969992 158.746546 726.957212 164.986561 730.20202 C 166.733765 731.100582 173.922263 734.744751 181.06084 738.289079 C 188.149497 741.833408 197.43464 747.873743 201.72777 751.667672 L 209.465389 758.656489 L 202.326812 761.701616 C 190.495743 766.793469 169.878733 767.39251 156.20062 763.04946 Z M 550.968939 764.646903 C 546.176608 763.698421 541.034835 761.851377 539.487312 760.553454 C 535.843143 757.408486 539.287631 753.315036 554.014067 743.281092 C 570.337947 732.198825 588.758471 726.507931 615.665417 724.161685 C 650.309981 721.216398 659.694964 720.866957 658.646641 722.664081 C 656.350316 726.40809 615.415816 753.015515 605.881073 756.909285 C 583.616699 766.094587 568.490902 768.191232 550.968939 764.696824 Z M 193.49095 737.739958 C 181.01092 728.105375 169.778893 711.681655 167.133126 699.151704 C 165.885123 693.16129 165.136321 676.83741 165.535682 662.011134 L 166.134724 635.55347 L 173.423061 649.780704 C 177.416671 657.618163 183.007725 667.552267 185.853172 671.845398 C 199.780886 692.662088 207.518504 720.866957 203.724575 736.741556 L 201.927451 744.229574 Z M 541.234516 723.812244 C 542.282838 701.847391 545.627486 691.014724 556.160632 675.938848 C 558.656638 672.344599 564.597133 661.961214 569.389464 652.725991 L 578.075565 636.002751 L 579.473329 653.125352 C 581.170613 673.692442 578.375086 700.100187 573.333154 711.032693 C 569.439384 719.569034 552.566383 738.139319 544.878685 742.332609 L 540.186193 744.928456 Z M 118.211407 698.702423 C 111.472191 697.204819 102.98577 694.359373 99.341601 692.412488 C 87.310852 686.072632 66.893522 667.951628 57.907901 655.671278 C 53.065649 649.081822 46.426273 640.695242 43.181465 637.051073 C 36.442248 629.612975 36.841609 629.263534 47.374755 633.356984 C 51.468205 635.004348 59.904705 637.300674 66.04488 638.548677 C 78.874352 641.144523 101.088806 651.527908 113.568836 660.813051 C 123.103579 667.901708 137.879935 684.824629 142.422666 693.810251 C 145.168273 699.201624 145.118353 699.700826 141.873545 699.700826 C 139.92666 699.700826 136.532092 700.100187 134.335606 700.599388 C 132.189041 701.098589 124.900703 700.249947 118.211407 698.702423 Z M 605.831153 700.249947 C 602.835946 699.800666 600.339939 698.952024 600.339939 698.352982 C 600.339939 694.309452 612.520449 677.636132 621.955352 668.70043 C 635.034424 656.37016 661.891449 641.893325 677.965728 638.448837 C 683.906223 637.200834 692.692164 634.854588 697.484496 633.257144 C 707.817961 629.762736 710.064366 630.811058 702.776029 635.65331 C 699.930582 637.600195 694.489288 643.84021 690.745279 649.581024 C 679.113891 667.252747 672.774036 673.293081 648.363096 690.066242 C 639.127874 696.356177 616.064778 701.897311 605.831153 700.249947 Z M 134.834808 673.243161 C 129.643115 667.053066 127.197029 661.312252 124.701023 649.730784 C 122.903899 641.294284 121.406295 630.860978 121.406295 626.567848 C 121.406295 615.23598 128.694633 580.741176 133.187444 570.757152 C 136.931453 562.370572 136.981373 562.320652 137.181053 568.360986 C 137.280894 571.705634 140.475781 587.280712 144.269711 602.95563 C 148.612761 620.827034 151.208607 636.452032 151.208607 644.838612 C 151.258528 658.067444 146.815637 678.085413 143.421069 680.281898 C 142.422666 680.88094 138.578817 677.686052 134.834808 673.243161 Z M 598.642655 675.639327 C 590.605516 654.822636 590.905037 641.194443 600.290019 602.95563 C 603.584747 589.527118 606.280434 576.048685 606.280434 573.053478 C 606.380274 555.231994 615.066375 575.349803 620.258068 605.251956 C 625.20016 634.005946 618.810384 667.502347 606.530035 676.78749 L 600.7393 681.180461 Z M 81.969399 618.131347 C 67.692244 612.939655 53.46501 601.458027 44.928669 588.329035 C 41.08482 582.43846 32.648319 566.563862 26.108783 553.085429 L 14.277715 528.574649 L 23.612777 534.065863 C 28.80447 537.11099 38.239373 543.301085 44.629148 547.893736 C 51.018924 552.436467 59.355584 558.077441 63.199433 560.473607 C 77.576428 569.409309 93.900308 595.517532 96.845595 614.237578 C 98.293279 623.672481 97.644317 623.872161 81.969399 618.131347 Z M 646.066771 619.17967 C 646.066771 617.482386 648.862297 608.596604 652.306786 599.511142 C 659.345523 580.841017 668.630666 569.059868 685.553587 557.42848 C 701.078744 546.745574 726.338326 530.721215 727.686169 530.671295 C 729.782814 530.671295 703.724511 582.538301 696.835534 592.122964 C 688.748474 603.305071 675.419802 613.189255 661.242488 618.480788 C 648.912218 623.123359 646.066771 623.27312 646.066771 619.17967 Z M 95.797273 592.821846 C 90.45582 578.19525 90.355979 559.674885 95.597592 542.302683 C 99.890723 528.175289 125.399905 485.793105 125.300064 493.031523 C 125.000544 516.743581 121.006934 564.217616 118.710608 571.655714 C 114.816839 584.285505 108.826424 596.066654 103.934252 600.559464 C 100.040483 604.203633 99.890723 604.053873 95.797273 592.821846 Z M 639.577155 600.409704 C 634.784823 594.968411 626.997284 577.596209 624.401438 566.663702 C 622.354713 558.027521 617.811982 491.88336 619.159825 490.435677 C 620.607509 488.838233 644.569167 529.423292 648.263256 539.856597 C 654.403431 557.079039 654.353511 581.040697 648.163416 594.319449 C 645.66741 599.610982 643.421004 604.003953 643.171404 604.003953 C 642.921803 604.003953 641.274439 602.356589 639.577155 600.409704 Z M 59.455424 527.426487 C 41.2845 515.146137 31.000955 494.429286 25.160301 458.187278 C 23.512937 448.003574 21.516132 437.919709 20.76733 435.823064 C 19.669088 432.827857 21.016931 433.376978 26.508144 438.069469 C 30.451834 441.414118 35.843207 445.707248 38.538893 447.604213 C 46.875554 453.544707 68.191446 486.042706 72.085215 498.822257 C 76.478186 513.249172 77.077227 534.764745 73.033697 534.764745 C 71.536094 534.764745 65.445839 531.470017 59.455424 527.426487 Z M 668.580745 519.589028 C 670.078349 501.767544 674.671 488.339032 684.006063 474.561078 C 690.99488 464.227613 720.946953 432.977617 723.84232 432.977617 C 724.740882 432.977617 724.591122 435.323863 723.492879 438.21923 C 722.394636 441.164517 720.297991 451.448062 718.750467 461.132565 C 713.359094 495.228008 701.977307 517.093022 683.906223 528.125368 C 667.831944 537.959632 667.133062 537.560271 668.580745 519.589028 Z M 80.621556 509.605003 C 79.722994 502.216825 80.322035 494.529127 82.51852 485.693265 C 88.009734 463.478811 94.099989 453.394947 113.468996 434.425301 C 123.30326 424.790717 131.340399 417.352619 131.340399 417.90174 C 131.340399 418.500782 129.942636 423.692474 128.195431 429.533129 C 118.510928 461.681687 112.470593 479.30349 108.876345 485.793105 C 103.385131 495.677289 85.214207 520.48759 83.417083 520.48759 C 82.618361 520.48759 81.370358 515.595418 80.621556 509.605003 Z M 652.506466 510.653326 C 636.382267 491.084638 627.696166 471.16651 613.369091 420.747187 L 611.921408 415.655335 L 616.81358 420.747187 C 619.559186 423.542714 628.494888 432.528336 636.731708 440.715236 C 649.461339 453.394947 652.456546 457.787917 657.049197 470.267948 C 662.740091 485.793105 665.435778 508.25716 662.540411 516.044699 C 660.843127 520.58743 660.543606 520.43767 652.506466 510.653326 Z M 66.594002 443.361002 C 50.769323 433.476818 44.429468 411.511965 46.925474 375.070276 C 47.774116 362.690086 48.472998 349.611014 48.522918 346.066686 C 48.572838 339.826671 48.722598 339.926511 55.312054 351.158538 C 59.056063 357.548314 63.349194 364.13777 64.846797 365.835054 C 68.940247 370.477625 76.777706 389.696872 79.673074 402.126982 C 82.16908 413.009568 81.570038 424.441276 77.626349 439.367393 C 75.280103 448.402935 74.880742 448.502775 66.594002 443.361002 Z M 667.532423 442.6122 C 665.885059 439.716833 664.986497 430.23201 664.936577 416.653737 C 664.936577 396.635769 665.335937 394.439283 671.376272 382.059093 C 674.920601 374.770756 681.709737 362.640166 686.502069 355.102228 L 695.13825 341.374194 L 696.885454 361.192482 C 699.880661 396.086647 697.734096 415.505575 689.097915 431.529934 C 685.603507 438.11939 675.220122 447.204852 671.226512 447.204852 C 670.57755 447.204852 668.930186 445.158127 667.532423 442.6122 Z M 85.663488 429.782729 C 85.663488 412.560287 95.547672 393.690482 112.570433 378.315084 C 119.758931 371.875388 154.603176 351.507979 158.496945 351.507979 C 159.095987 351.507979 156.749741 354.952467 153.305253 359.145758 C 149.860764 363.339048 141.673864 375.020356 135.084408 385.104221 C 121.955416 405.32187 108.926265 419.998385 96.246554 429.083848 C 86.112769 436.272345 85.663488 436.322265 85.663488 429.782729 Z M 649.012058 429.632969 C 637.230909 421.645749 620.407828 404.473228 616.164618 395.986807 C 610.274044 384.355419 600.240099 369.529143 593.001682 361.741604 C 589.407433 357.897754 586.462146 353.904145 586.462146 352.955662 C 586.462146 352.00718 595.447768 356.10063 606.430194 361.991204 C 622.155033 370.377785 629.19377 375.669318 639.177794 386.501984 C 651.857505 400.279938 654.702952 406.270352 658.996082 428.384966 C 660.543606 436.372185 659.245683 436.571866 649.012058 429.632969 Z M 88.259334 361.292323 C 75.379943 338.978028 75.879144 324.451273 91.104781 278.375001 L 96.795675 261.2524 L 103.484971 282.11901 C 108.776504 298.59265 110.224188 306.330269 110.174268 318.610619 C 110.174268 335.733221 104.782895 353.554704 96.745755 363.089447 L 92.352784 368.38098 Z M 648.712537 365.485613 C 647.514454 363.938089 643.970126 357.698074 640.825158 351.507979 C 635.533625 341.124594 635.134264 338.778348 635.284024 317.911737 C 635.383865 297.943689 636.032826 293.800319 641.52404 279.223643 C 645.268049 269.389379 648.163416 264.147767 648.862297 265.994811 C 657.548399 288.958067 665.885059 319.908542 665.885059 329.543126 C 665.934979 338.179307 659.445363 357.348633 654.303591 363.838249 C 651.508064 367.432498 650.459741 367.732018 648.712537 365.485613 Z M 108.676664 353.055503 C 115.515721 330.940889 143.820429 309.824678 177.416671 301.687698 C 197.185039 296.895366 198.582803 297.644168 186.801654 306.67971 C 181.01092 311.122601 173.123541 317.861817 169.229771 321.555906 C 152.606371 337.530345 120.108372 357.548314 110.873149 357.598234 C 108.027702 357.648154 107.578421 356.649751 108.676664 353.055503 Z M 627.396645 356.15055 C 620.307988 354.303506 599.391457 341.474035 588.458951 332.238812 C 582.418616 327.19688 571.086748 317.811897 563.199369 311.372201 C 555.36191 304.982426 549.221735 299.391372 549.571176 299.041931 C 551.468141 297.095047 576.528042 303.684503 591.054797 309.924518 C 609.675002 317.911737 624.950559 330.990809 631.889456 344.818683 C 638.179391 357.498394 637.63027 358.846237 627.396645 356.15055 Z M 125.799266 289.956469 C 122.804058 275.729235 124.551263 258.656553 130.242156 246.975245 C 133.037683 241.234431 141.074823 229.353442 148.11356 220.667341 L 160.843191 204.792742 L 162.240954 218.071495 C 165.286082 247.224845 158.297265 271.486024 142.173065 287.909744 C 136.382331 293.800319 130.741358 298.59265 129.643115 298.59265 C 128.544872 298.59265 126.797668 294.698881 125.799266 289.956469 Z M 603.834348 289.607028 C 598.243294 284.315496 592.15304 275.779155 588.958152 268.740418 C 584.1159 258.107432 583.466938 254.063902 582.817977 230.401764 L 582.119095 203.89418 L 589.756874 212.879802 C 611.871488 238.888185 617.861902 250.120212 619.559186 268.490817 C 620.657429 280.721247 617.762062 298.59265 614.716934 298.54273 C 613.918212 298.54273 609.026041 294.4992 603.834348 289.607028 Z M 155.501738 282.16893 C 172.474579 265.69529 189.497341 259.854636 220.397896 259.954476 C 242.262909 259.954476 246.106758 262.101042 233.327207 266.993213 C 228.085594 268.990018 216.653887 274.281551 207.867945 278.724442 C 190.445823 287.560303 171.975378 292.402555 155.501738 292.452475 L 144.868752 292.502395 Z M 565.595535 289.607028 C 559.055999 288.209265 545.178205 282.917732 534.79482 277.8758 C 524.411435 272.783948 512.580366 267.392574 508.486916 265.894971 C 497.75409 261.951281 502.796022 259.954476 523.462953 259.954476 C 555.21215 259.854636 575.379879 267.292734 592.3028 285.214058 L 599.141857 292.502395 L 588.35911 292.302715 C 582.368696 292.152955 572.135071 290.954872 565.595535 289.607028 Z M 210.363951 247.773967 C 206.220581 246.975245 202.326812 245.727242 201.62793 244.97844 C 199.381525 242.682114 204.822818 238.039543 215.405884 233.297132 C 231.280482 226.108634 255.990942 226.557915 278.954198 234.445294 C 288.488941 237.690102 296.3264 241.134591 296.3264 241.983233 C 296.3264 242.881795 292.981752 243.630597 288.888302 243.630597 C 284.794852 243.630597 271.56602 244.97844 259.535271 246.625804 C 236.222574 249.820692 222.394701 250.170133 210.363951 247.773967 Z M 492.063196 247.724047 C 485.52366 246.825484 472.694189 245.377801 463.658647 244.529159 C 454.573185 243.680517 447.883889 242.282753 448.732531 241.384191 C 452.077179 238.039543 480.831169 229.503202 493.161439 228.205279 C 508.087555 226.657755 527.706163 230.851046 536.991305 237.640182 C 543.580761 242.482434 544.179803 244.678919 539.237711 246.575884 C 533.596737 248.822289 504.892667 249.521171 492.063196 247.724047 Z M 182.159083 240.335869 C 177.816032 222.564305 190.845184 200.549532 216.004925 183.12741 C 222.494541 178.684519 229.683038 173.992027 232.029284 172.694104 L 236.272494 170.397779 L 232.728166 184.525173 C 227.736154 204.393381 222.1451 215.176127 210.613552 227.156957 C 202.476572 235.643377 188.249338 245.627402 184.355568 245.627402 C 183.856367 245.627402 182.907885 243.281156 182.159083 240.335869 Z M 550.469738 241.583872 C 541.134676 236.541939 523.213352 216.37421 518.620701 205.741225 C 514.826772 196.955283 508.187395 172.444504 509.285638 171.346261 C 509.684999 170.99682 516.424215 175.04035 524.361515 180.281963 C 540.385874 190.914948 557.658236 210.283956 560.853123 221.216462 C 563.249289 229.503202 562.500487 244.079878 559.655041 244.8786 C 558.556798 245.17812 554.413428 243.730437 550.469738 241.583872 Z M 245.707397 204.443301 C 249.850767 184.724853 260.134312 176.587874 291.334388 168.351054 C 299.022087 166.304329 306.909466 163.958083 308.956191 163.109441 C 315.945008 160.214074 306.859546 173.942107 291.384308 189.816706 C 276.508112 205.042343 264.876724 211.032757 250.100368 211.032757 C 244.659075 211.032757 244.409474 210.683317 245.707397 204.443301 Z M 477.28684 207.688109 C 472.444588 205.940905 464.95657 201.647775 460.61352 198.103446 C 453.275262 192.113031 430.960968 164.057923 432.358731 162.61024 C 432.708172 162.260799 437.350743 163.309121 442.642276 165.006405 C 447.983729 166.70369 458.017673 169.748817 464.95657 171.745622 C 484.325577 177.336675 499.002093 192.562312 499.002093 206.889387 C 499.002093 210.234035 497.75409 211.032757 492.562397 210.932917 C 489.018069 210.882997 482.129092 209.435314 477.28684 207.688109 Z M 477.28684 207.688109 " stroke="#000000" stroke-width="1.015" stroke-opacity="1" stroke-miterlimit="4"/></g><g fill="#dde1ee" fill-opacity="1"><g transform="translate(172.247597, 192.244466)"><g><path d="M 11.140625 -7.75 C 11.140625 -7.25 11.050781 -6.796875 10.875 -6.390625 C 10.707031 -5.984375 10.425781 -5.632812 10.03125 -5.34375 C 9.644531 -5.050781 9.144531 -4.820312 8.53125 -4.65625 C 7.925781 -4.5 7.191406 -4.421875 6.328125 -4.421875 L 5.21875 -4.421875 L 5.21875 -0.46875 L 6.875 -0.46875 L 6.875 0 L 0.46875 0 L 0.46875 -0.46875 L 1.734375 -0.46875 L 1.734375 -10.59375 L 0.46875 -10.59375 L 0.46875 -11.0625 L 6.328125 -11.0625 C 7.191406 -11.0625 7.925781 -10.984375 8.53125 -10.828125 C 9.144531 -10.671875 9.644531 -10.441406 10.03125 -10.140625 C 10.425781 -9.847656 10.707031 -9.5 10.875 -9.09375 C 11.050781 -8.6875 11.140625 -8.238281 11.140625 -7.75 Z M 7.515625 -7.75 C 7.515625 -8.21875 7.460938 -8.625 7.359375 -8.96875 C 7.253906 -9.320312 7.113281 -9.613281 6.9375 -9.84375 C 6.757812 -10.070312 6.550781 -10.238281 6.3125 -10.34375 C 6.070312 -10.457031 5.8125 -10.515625 5.53125 -10.515625 L 5.21875 -10.515625 L 5.21875 -4.984375 L 5.53125 -4.984375 C 5.8125 -4.984375 6.070312 -5.035156 6.3125 -5.140625 C 6.550781 -5.253906 6.757812 -5.425781 6.9375 -5.65625 C 7.113281 -5.882812 7.253906 -6.171875 7.359375 -6.515625 C 7.460938 -6.859375 7.515625 -7.269531 7.515625 -7.75 Z M 7.515625 -7.75 "/></g></g></g><g fill="#dde1ee" fill-opacity="1"><g transform="translate(186.384285, 192.244466)"><g><path d="M 0.46875 -11.0625 L 5.0625 -11.0625 L 8.3125 -4.34375 L 8.390625 -4.34375 L 11.3125 -11.0625 L 15.890625 -11.0625 L 15.890625 -10.59375 L 14.625 -10.59375 L 14.625 -0.46875 L 15.890625 -0.46875 L 15.890625 0 L 10.046875 0 L 10.046875 -0.46875 L 11.140625 -0.46875 L 11.140625 -8.859375 L 11.0625 -8.859375 L 7.109375 0.15625 L 6.796875 0.15625 L 2.375 -8.859375 L 2.296875 -8.859375 L 2.296875 -1.734375 L 4.34375 -0.46875 L 4.34375 0 L 0.46875 0 L 0.46875 -0.46875 L 1.734375 -0.46875 L 1.734375 -10.59375 L 0.46875 -10.59375 Z M 0.46875 -11.0625 "/></g></g></g></svg>